<?xml version="1.0" standalone="no"?>
<!DOCTYPE svg PUBLIC "-//W3C//DTD SVG 20010904//EN"
 "http://www.w3.org/TR/2001/REC-SVG-20010904/DTD/svg10.dtd">
<svg version="1.0" xmlns="http://www.w3.org/2000/svg"
 width="500.000000pt" height="500.000000pt" viewBox="0 0 500.000000 500.000000"
 preserveAspectRatio="xMidYMid meet">

<g transform="translate(0.000000,500.000000) scale(0.100000,-0.100000)"
fill="#000000" stroke="none">
<path d="M2640 3822 c-111 -41 -172 -109 -194 -214 -43 -210 129 -384 337
-343 98 20 193 106 218 198 18 67 7 165 -27 227 -45 84 -154 148 -249 148 -22
0 -60 -7 -85 -16z"/>
<path d="M2290 3800 c-30 -5 -138 -18 -240 -30 -102 -12 -237 -28 -300 -35
-112 -14 -281 -34 -628 -74 -92 -11 -248 -30 -347 -42 -99 -12 -207 -24 -240
-28 -52 -5 -60 -9 -63 -28 -2 -13 0 -23 5 -23 4 0 40 -5 78 -11 39 -5 139 -19
223 -30 388 -49 467 -59 617 -79 283 -37 568 -74 850 -109 77 -10 141 -17 143
-16 2 2 -5 27 -15 56 -14 42 -18 85 -18 189 0 124 3 140 28 199 15 36 27 66
27 68 0 5 -59 1 -120 -7z"/>
<path d="M3300 3763 c0 -3 7 -14 15 -23 15 -16 65 -164 126 -372 41 -142 56
-151 73 -48 12 71 124 392 145 414 12 12 21 25 21 29 0 4 -25 7 -55 7 -59 0
-64 -4 -40 -30 14 -15 12 -29 -21 -141 -20 -68 -42 -141 -48 -162 -5 -20 -14
-36 -20 -34 -10 3 -95 281 -96 315 0 12 5 22 10 22 6 0 10 7 10 15 0 12 -13
15 -60 15 -33 0 -60 -3 -60 -7z"/>
<path d="M3698 3543 c-70 -73 -57 -270 18 -289 30 -8 91 18 101 41 9 25 -4 29
-33 10 -26 -17 -27 -16 -50 6 -13 14 -26 42 -30 66 l-6 41 61 17 c35 10 61 23
61 31 0 42 -46 104 -78 104 -10 0 -30 -12 -44 -27z m54 -40 c10 -9 18 -19 18
-24 0 -6 -53 -29 -66 -29 -7 0 -4 18 6 44 11 30 17 32 42 9z"/>
<path d="M3918 3547 c-37 -34 -51 -88 -46 -169 6 -80 30 -121 72 -126 31 -4
96 33 96 54 0 18 -19 18 -40 -1 -10 -9 -24 -13 -33 -9 -20 7 -47 64 -47 97 0
22 7 28 55 42 31 9 58 22 61 30 6 16 -22 75 -45 92 -24 19 -45 15 -73 -10z
m52 -42 c17 -21 6 -41 -24 -47 -29 -6 -34 9 -16 43 13 23 23 24 40 4z"/>
<path d="M4112 3537 c-34 -35 -42 -67 -17 -67 12 0 15 -15 15 -79 0 -58 -4
-82 -15 -91 -28 -23 -16 -30 50 -30 37 0 65 4 65 10 0 6 -11 10 -24 10 -21 0
-26 6 -31 43 -3 23 -2 67 2 97 8 50 11 55 33 56 14 0 31 3 38 8 17 10 15 51
-3 66 -13 11 -20 9 -40 -10 -20 -19 -25 -20 -25 -7 0 29 -16 27 -48 -6z"/>
<path d="M4314 3548 c-48 -37 -55 -54 -26 -60 15 -3 17 -16 17 -100 0 -88 2
-100 22 -120 24 -23 23 -23 96 7 12 5 17 2 17 -9 0 -20 9 -20 48 0 35 17 41
31 17 40 -12 5 -15 30 -15 136 0 115 -2 129 -16 124 -9 -3 -27 -9 -40 -12 -27
-7 -31 -28 -9 -50 11 -11 15 -37 15 -94 0 -73 -2 -80 -27 -100 -24 -19 -28
-19 -42 -5 -13 13 -16 40 -16 135 0 65 -3 121 -6 124 -3 4 -19 -4 -35 -16z"/>
<path d="M614 2935 c-6 -14 27 -134 135 -505 115 -392 148 -507 217 -745 42
-143 89 -307 106 -365 17 -58 34 -113 39 -122 9 -16 29 -18 203 -18 l193 0 18
63 c70 255 103 357 116 357 5 0 10 -93 11 -207 l3 -208 720 -3 720 -2 -1 62
-2 63 -51 3 -51 3 2 752 3 752 50 3 50 3 -1 62 -2 62 -717 0 -718 0 -157 -625
c-186 -739 -173 -693 -186 -697 -6 -2 -37 102 -71 239 -192 765 -266 1055
-274 1071 -9 15 -28 17 -180 17 -142 0 -171 -2 -175 -15z m2046 -560 c3 -137
3 -387 0 -555 l-5 -305 -333 -3 -332 -2 2 202 3 203 183 3 182 2 0 150 0 150
-180 0 c-167 0 -180 1 -190 19 -11 22 -14 373 -3 384 4 4 155 6 337 5 l331 -3
5 -250z"/>
<path d="M3305 2739 c-4 -6 1 -16 11 -24 17 -12 19 -32 22 -214 3 -191 2 -201
-17 -220 -12 -12 -21 -25 -21 -31 0 -6 50 -10 130 -10 146 0 139 -4 153 83 4
28 2 37 -9 37 -8 0 -14 -7 -14 -16 0 -8 -13 -29 -29 -45 -25 -24 -37 -29 -80
-29 -61 0 -63 5 -59 130 l3 85 42 3 c32 2 47 -2 62 -17 32 -32 41 -25 41 29 0
54 -15 66 -38 30 -9 -16 -23 -20 -62 -20 l-51 0 3 103 3 102 47 3 c62 4 88
-10 88 -48 0 -20 5 -30 15 -30 12 0 15 13 15 55 l0 55 -124 0 c-78 0 -127 -4
-131 -11z"/>
<path d="M3658 2524 c-32 -17 -34 -26 -13 -44 11 -9 15 -34 15 -100 0 -74 -3
-90 -20 -105 -28 -26 -16 -35 46 -35 39 0 54 4 54 14 0 8 -7 16 -15 20 -12 4
-15 26 -15 104 0 97 1 99 26 111 45 20 54 2 54 -109 0 -75 -4 -100 -15 -110
-27 -22 -16 -30 40 -30 40 0 55 4 55 14 0 8 -7 16 -15 20 -12 4 -15 27 -15
113 0 82 -4 114 -16 131 -17 24 -53 29 -87 11 -16 -9 -22 -9 -25 0 -5 15 -21
13 -54 -5z"/>
<path d="M3954 2518 c-34 -37 -44 -63 -44 -116 0 -35 7 -59 24 -84 23 -34 23
-35 4 -47 -17 -10 -19 -19 -14 -55 5 -32 3 -46 -9 -56 -9 -7 -15 -29 -15 -54
0 -76 54 -105 134 -72 50 21 76 60 76 116 0 58 -14 71 -81 78 -27 2 -52 8 -54
12 -3 4 16 25 41 46 54 44 78 93 69 141 -4 25 -2 33 8 33 17 0 32 49 20 60 -4
4 -37 11 -73 14 -60 7 -67 5 -86 -16z m61 -28 c25 -28 32 -118 11 -145 -15
-20 -15 -20 -41 6 -34 34 -44 98 -21 134 20 30 27 31 51 5z m53 -366 c3 -27
-2 -33 -34 -49 -34 -16 -41 -16 -64 -4 -28 16 -38 53 -19 75 9 11 27 14 63 12
49 -3 51 -4 54 -34z"/>
<path d="M4212 2520 c-31 -29 -42 -61 -42 -125 0 -42 5 -60 24 -82 24 -29 24
-29 4 -42 -17 -11 -19 -19 -14 -55 5 -32 3 -46 -9 -56 -23 -19 -20 -95 5 -120
37 -37 126 -18 168 35 25 32 30 101 9 129 -7 10 -31 19 -57 22 -77 9 -77 11
-17 67 56 52 57 53 57 110 0 42 4 57 14 57 16 0 31 49 19 60 -4 4 -37 11 -73
14 -58 6 -68 5 -88 -14z m61 -28 c27 -29 33 -106 12 -139 l-18 -27 -28 32
c-32 35 -38 82 -17 127 13 30 29 32 51 7z m53 -357 c11 -46 -52 -89 -96 -65
-32 17 -41 44 -24 68 12 18 25 22 64 22 45 0 50 -3 56 -25z"/>
<path d="M4416 2314 c-15 -22 -16 -31 -6 -55 15 -36 34 -37 57 -3 15 24 15 28
1 52 -22 36 -32 37 -52 6z"/>
<path d="M3889 1723 c-41 -35 -69 -96 -69 -154 0 -38 -4 -48 -20 -52 -11 -3
-20 -13 -20 -22 0 -9 9 -19 20 -22 18 -5 20 -14 20 -104 0 -88 -2 -101 -21
-120 -28 -28 -11 -40 55 -37 50 3 73 21 37 31 -18 4 -20 15 -23 115 l-3 111
35 3 c27 2 35 7 35 23 0 15 -8 21 -34 23 l-34 3 6 76 c7 93 26 122 64 97 31
-20 53 -12 53 20 0 44 -53 49 -101 9z"/>
<path d="M3300 1710 c0 -6 11 -15 24 -20 21 -8 25 -17 32 -77 7 -72 0 -317
-11 -345 -4 -10 -16 -20 -26 -23 -41 -13 -12 -30 56 -33 75 -3 104 10 63 29
-20 9 -27 21 -32 56 -8 59 -8 229 1 316 5 60 9 70 30 78 13 5 21 13 18 19 -8
13 -155 13 -155 0z"/>
<path d="M3523 1499 c-36 -23 -41 -34 -18 -43 22 -8 22 -182 -1 -207 -24 -26
-9 -39 47 -39 52 0 64 15 34 40 -13 10 -15 32 -13 109 3 95 3 96 31 106 46 16
59 -11 55 -116 -2 -66 -7 -92 -21 -107 -16 -18 -16 -20 -2 -26 26 -10 83 -7
90 5 4 5 0 18 -9 28 -13 14 -16 40 -16 122 0 78 -4 110 -16 127 -17 25 -47 28
-84 8 -20 -12 -26 -12 -35 0 -8 11 -15 10 -42 -7z"/>
<path d="M4065 1500 c-21 -24 -40 -26 -31 -5 9 24 -15 17 -46 -12 -31 -29 -36
-58 -13 -67 20 -7 20 -120 0 -160 -8 -15 -15 -32 -15 -38 0 -14 123 -5 128 10
2 7 -6 12 -21 12 -29 0 -37 20 -37 97 0 73 14 107 42 100 27 -8 48 9 48 37 0
21 -17 46 -30 46 -4 0 -15 -9 -25 -20z"/>
<path d="M4228 1504 c-15 -8 -32 -23 -38 -34 -14 -26 -13 -60 3 -60 19 0 37
21 37 42 0 10 4 18 8 18 18 0 32 -26 32 -61 0 -34 -4 -39 -47 -60 -47 -23 -48
-25 -51 -75 -4 -66 13 -83 63 -65 27 9 38 9 53 0 17 -10 25 -9 47 5 27 18 29
43 2 38 -13 -2 -16 15 -19 112 -2 95 -6 117 -22 135 -22 25 -32 25 -68 5z m42
-207 c0 -39 -41 -64 -53 -33 -7 18 20 56 39 56 8 0 14 -10 14 -23z"/>
</g>
</svg>
