<?xml version="1.0" encoding="UTF-8"?>
<svg version="1.1" xmlns="http://www.w3.org/2000/svg" width="500" height="500">
<path d="M0 0 C13.2 0 26.4 0 40 0 C40 1.65 40 3.3 40 5 C40.66 5 41.32 5 42 5 C42.12117188 5.72445312 42.24234375 6.44890625 42.3671875 7.1953125 C43.37951099 13.18168781 43.37951099 13.18168781 45.0625 19 C46.49124748 23.57199195 46.67801351 28.23798921 47 33 C47.66 33 48.32 33 49 33 C49.19335938 34.00160156 49.38671875 35.00320312 49.5859375 36.03515625 C49.84880049 37.37763508 50.11183026 38.72008127 50.375 40.0625 C50.50132813 40.71927734 50.62765625 41.37605469 50.7578125 42.05273438 C51.62359417 46.44657635 52.76159613 50.69310654 54 55 C55.09240783 59.46865599 56.11695889 63.95354787 57.14453125 68.4375 C58.1623203 72.795885 59.26225768 76.86537173 61 81 C61.37414345 82.61609183 61.70785053 84.24209314 62 85.875 C62.55607877 88.84367248 63.18251618 91.60122975 64.0625 94.5 C65.2605604 98.97275882 65.64780806 103.39370018 66 108 C66.66 108 67.32 108 68 108 C68.33895656 109.72807318 68.67091525 111.45751974 69 113.1875 C69.185625 114.15042969 69.37125 115.11335938 69.5625 116.10546875 C69.96877612 118.7934206 70.07933572 121.28771019 70 124 C71.65 124 73.3 124 75 124 C75.06058594 123.26394531 75.12117188 122.52789062 75.18359375 121.76953125 C75.30927734 120.30580078 75.30927734 120.30580078 75.4375 118.8125 C75.51871094 117.84957031 75.59992188 116.88664062 75.68359375 115.89453125 C75.97666151 113.21350398 76.42703754 110.6337014 77 108 C77.66 108 78.32 108 79 108 C79.02578125 107.3915625 79.0515625 106.783125 79.078125 106.15625 C79.55899468 98.72462768 81.15414202 91.86180348 83.0625 84.69921875 C83.88118626 81.46881921 84.50976733 78.29375076 85 75 C85.66 75 86.32 75 87 75 C87.07347656 74.00419922 87.07347656 74.00419922 87.1484375 72.98828125 C87.22320312 72.10527344 87.29796875 71.22226562 87.375 70.3125 C87.44460937 69.44238281 87.51421875 68.57226562 87.5859375 67.67578125 C88.02169944 64.85977251 88.92790723 62.63112844 90 60 C90.37753325 58.17525595 90.71044303 56.340755 91 54.5 C91.44689189 51.65904442 91.9187412 49.20060765 93 46.53125 C94.12707983 43.67832919 94.56666617 41.03333682 95 38 C95.57033821 34.00763251 96.49119201 30.72523524 98 27 C98.42148875 25.07207923 98.79676438 23.1334683 99.125 21.1875 C99.29257813 20.21167969 99.46015625 19.23585937 99.6328125 18.23046875 C99.81457031 17.12638672 99.81457031 17.12638672 100 16 C100.66 16 101.32 16 102 16 C102.07347656 14.89591797 102.07347656 14.89591797 102.1484375 13.76953125 C102.22320312 12.79371094 102.29796875 11.81789062 102.375 10.8125 C102.44460937 9.84957031 102.51421875 8.88664063 102.5859375 7.89453125 C103.00343593 4.97598088 103.86388823 2.70474328 105 0 C122.09925406 -0.02343644 139.19850306 -0.04103169 156.29776955 -0.05181217 C164.23855758 -0.05695241 172.17933559 -0.06395144 180.12011719 -0.07543945 C187.04720421 -0.0854561 193.97428397 -0.09186993 200.90137804 -0.09408849 C204.563835 -0.09538382 208.2262712 -0.09839415 211.88872147 -0.10573006 C215.99304344 -0.11388315 220.09733009 -0.11398668 224.20166016 -0.11352539 C225.39497452 -0.11712067 226.58828888 -0.12071594 227.81776428 -0.12442017 C235.92241587 -0.11463285 243.92076769 0.35116514 252 1 C252 5.95 252 10.9 252 16 C248.7 16 245.4 16 242 16 C242 65.17 242 114.34 242 165 C245.3 165 248.6 165 252 165 C252 169.95 252 174.9 252 180 C243.76712893 180.86753666 235.66550581 181.15354838 227.39038086 181.16113281 C226.07525513 181.16609772 224.76012939 181.17106262 223.40515137 181.17617798 C219.83346876 181.18916213 216.26180479 181.19571655 212.69010234 181.20018864 C210.45661789 181.20313585 208.22313838 181.20724313 205.98965645 181.21169281 C198.9940611 181.22531676 191.99847723 181.23501415 185.00286955 181.2388947 C176.93762438 181.24339471 168.87254706 181.26105311 160.80735296 181.2898953 C154.55831585 181.31146713 148.30932622 181.32159619 142.06025225 181.32293582 C138.33233271 181.323985 134.60457208 181.32991939 130.87669182 181.34775543 C126.73271177 181.36720503 122.58908884 181.36296541 118.44506836 181.35644531 C117.2071907 181.3656601 115.96931305 181.37487488 114.69392395 181.3843689 C113.0097789 181.37601517 113.0097789 181.37601517 111.29161072 181.36749268 C110.31220489 181.36895924 109.33279905 181.3704258 108.32371426 181.3719368 C107.55688855 181.24919765 106.79006285 181.12645851 106 181 C103.64290358 177.46435537 103.69990265 175.77974745 103.5859375 171.58203125 C103.54726562 170.32841797 103.50859375 169.07480469 103.46875 167.78320312 C103.4378125 166.47287109 103.406875 165.16253906 103.375 163.8125 C103.33680662 162.4771884 103.29775409 161.14190108 103.2578125 159.80664062 C103.16341115 156.53799389 103.08061168 153.26901588 103 150 C101.35 156.27 99.7 162.54 98 169 C97.34 169 96.68 169 96 169 C95.92652344 169.92232422 95.92652344 169.92232422 95.8515625 170.86328125 C95.77679688 171.67152344 95.70203125 172.47976563 95.625 173.3125 C95.55539063 174.11300781 95.48578125 174.91351563 95.4140625 175.73828125 C95 178 95 178 93 181 C91.1784668 181.38095093 91.1784668 181.38095093 88.94921875 181.38818359 C88.11495361 181.39764008 87.28068848 181.40709656 86.42114258 181.4168396 C85.51904053 181.41076691 84.61693848 181.40469421 83.6875 181.3984375 C82.76283936 181.40130768 81.83817871 181.40417786 80.88549805 181.40713501 C78.92854196 181.40917849 76.97156557 181.40362882 75.01464844 181.39111328 C72.01190707 181.37506364 69.01051179 181.39095237 66.0078125 181.41015625 C64.10937202 181.40817387 62.21093237 181.4043303 60.3125 181.3984375 C58.95934692 181.40754654 58.95934692 181.40754654 57.57885742 181.4168396 C56.74459229 181.40738312 55.91032715 181.39792664 55.05078125 181.38818359 C53.94730347 181.38460342 53.94730347 181.38460342 52.8215332 181.38095093 C51 181 51 181 49 178 C48.875 174.8125 48.875 174.8125 49 172 C48.34 172 47.68 172 47 172 C44.70387244 162.58997722 44.70387244 162.58997722 45 158 C44.34 158 43.68 158 43 158 C42.87882812 157.40832031 42.75765625 156.81664062 42.6328125 156.20703125 C41.60172651 151.25794289 41.60172651 151.25794289 39.9375 146.5 C38.53829172 142.76877792 38.32717973 138.9519867 38 135 C37.34 135 36.68 135 36 135 C33.70387244 125.58997722 33.70387244 125.58997722 34 121 C33.34 121 32.68 121 32 121 C31.82871582 120.3294458 31.65743164 119.6588916 31.48095703 118.96801758 C30.69909731 115.91528033 29.91210116 112.86388983 29.125 109.8125 C28.85558594 108.75740234 28.58617188 107.70230469 28.30859375 106.61523438 C28.04433594 105.59365234 27.78007813 104.57207031 27.5078125 103.51953125 C27.26691895 102.58214111 27.02602539 101.64475098 26.77783203 100.67895508 C26.01002131 98.03451471 25.02434549 95.55334757 24 93 C23.5859375 90.32421875 23.5859375 90.32421875 23.375 87.6875 C23.30023438 86.80449219 23.22546875 85.92148437 23.1484375 85.01171875 C23.07496094 84.01591797 23.07496094 84.01591797 23 83 C22.34 83 21.68 83 21 83 C20.80664062 82.13117188 20.61328125 81.26234375 20.4140625 80.3671875 C20.02347656 78.63855469 20.02347656 78.63855469 19.625 76.875 C19.36976562 75.73804688 19.11453125 74.60109375 18.8515625 73.4296875 C18.05249256 70.211415 17.07028512 67.1364726 16 64 C15.38403321 61.89925736 14.78057781 59.79481902 14.1875 57.6875 C12.60715828 52.11783124 11.00455034 46.55547779 9.375 41 C9.1689917 40.29447998 8.9629834 39.58895996 8.75073242 38.86206055 C7.8558135 35.81672436 6.92992846 32.792558 5.9140625 29.78515625 C5.10972936 27.33434629 4.50597756 24.96287012 4 22.4375 C3.29242146 19.11132373 2.30988227 16.14371744 1 13 C-0.23954805 8.41367222 0 5.06971112 0 0 Z M141 35 C141 47.21 141 59.42 141 72 C153.21 72 165.42 72 178 72 C178 83.22 178 94.44 178 106 C165.79 106 153.58 106 141 106 C141 118.87 141 131.74 141 145 C162.12 145 183.24 145 205 145 C205 108.7 205 72.4 205 35 C183.88 35 162.76 35 141 35 Z " fill="#FFFFFF" transform="translate(59,203)"/>
<path d="M0 0 C-0.28875 0.680625 -0.5775 1.36125 -0.875 2.0625 C-2.12597355 5.32893093 -3.07447955 8.62846123 -4 12 C-4.66 12 -5.32 12 -6 12 C-6.72431573 24.09163813 -7.33891883 35.92913182 -6 48 C-5.34 48 -4.68 48 -4 48 C-3.67 50.64 -3.34 53.28 -3 56 C-4.66611905 56.042721 -6.33382885 56.04063832 -8 56 C-8.33 55.67 -8.66 55.34 -9 55 C-11.28703181 54.6994273 -13.5821436 54.45996234 -15.87890625 54.24609375 C-16.90889992 54.14833397 -16.90889992 54.14833397 -17.95970154 54.04859924 C-20.16026435 53.84071107 -22.36134782 53.63904262 -24.5625 53.4375 C-26.05147061 53.29793427 -27.54040351 53.15796558 -29.02929688 53.01757812 C-32.6857713 52.67370262 -36.34273768 52.33540418 -40 52 C-40 51.34 -40 50.68 -40 50 C-40.58700684 50.01160156 -41.17401367 50.02320313 -41.77880859 50.03515625 C-48.45155508 50.10829655 -54.98786171 49.65573863 -61.625 49 C-63.13126953 48.85691406 -63.13126953 48.85691406 -64.66796875 48.7109375 C-67.11241236 48.47813335 -69.5563625 48.2410936 -72 48 C-72 47.34 -72 46.68 -72 46 C-72.59425781 46.01160156 -73.18851562 46.02320313 -73.80078125 46.03515625 C-80.22470471 46.1050901 -86.63421226 45.93580546 -93 45 C-93.33 44.67 -93.66 44.34 -94 44 C-96.28703181 43.6994273 -98.5821436 43.45996234 -100.87890625 43.24609375 C-101.5655687 43.18092056 -102.25223114 43.11574738 -102.95970154 43.04859924 C-105.16026435 42.84071107 -107.36134782 42.63904262 -109.5625 42.4375 C-111.05147061 42.29793427 -112.54040351 42.15796558 -114.02929688 42.01757812 C-117.6857713 41.67370262 -121.34273768 41.33540418 -125 41 C-125 40.34 -125 39.68 -125 39 C-125.58700684 39.01160156 -126.17401367 39.02320313 -126.77880859 39.03515625 C-133.45155508 39.10829655 -139.98786171 38.65573863 -146.625 38 C-148.13126953 37.85691406 -148.13126953 37.85691406 -149.66796875 37.7109375 C-152.11241236 37.47813335 -154.5563625 37.2410936 -157 37 C-157 36.34 -157 35.68 -157 35 C-158.258125 35.020625 -159.51625 35.04125 -160.8125 35.0625 C-174.875 35.0625 -174.875 35.0625 -179 33 C-180.37206521 32.78308608 -181.75139272 32.61076837 -183.1328125 32.46484375 C-183.93847656 32.37783203 -184.74414062 32.29082031 -185.57421875 32.20117188 C-186.41597656 32.11416016 -187.25773437 32.02714844 -188.125 31.9375 C-188.97449219 31.84662109 -189.82398438 31.75574219 -190.69921875 31.66210938 C-192.7991145 31.4379632 -194.89951293 31.21853552 -197 31 C-197 28.36 -197 25.72 -197 23 C-195.17662109 22.80083984 -195.17662109 22.80083984 -193.31640625 22.59765625 C-191.73174516 22.41949909 -190.1471111 22.24110125 -188.5625 22.0625 C-187.76005859 21.97548828 -186.95761719 21.88847656 -186.13085938 21.79882812 C-182.24423336 21.69451606 -182.24423336 21.69451606 -179 20 C-171.3691043 18.96638369 -163.6871881 18.86380966 -156 19 C-156 18.34 -156 17.68 -156 17 C-152.22983769 16.6587842 -148.45878834 16.32851717 -144.6875 16 C-143.63498047 15.90460938 -142.58246094 15.80921875 -141.49804688 15.7109375 C-134.64536517 15.12055261 -127.8771579 14.87665827 -121 15 C-121 14.34 -121 13.68 -121 13 C-119.46291382 12.87153687 -119.46291382 12.87153687 -117.89477539 12.74047852 C-114.10564397 12.42260299 -110.31703786 12.09880982 -106.52856445 11.77319336 C-104.88644993 11.63289588 -103.24419603 11.49422005 -101.60180664 11.35717773 C-99.24587398 11.160317 -96.89049831 10.95769653 -94.53515625 10.75390625 C-93.79660904 10.6934462 -93.05806183 10.63298615 -92.2971344 10.57069397 C-88.85358347 10.54275081 -88.85358347 10.54275081 -86 9 C-83.58131103 8.7099775 -81.18069705 8.47707074 -78.75390625 8.28125 C-78.02759506 8.21844849 -77.30128387 8.15564697 -76.55296326 8.09094238 C-74.22315117 7.88968109 -71.89290892 7.69422073 -69.5625 7.5 C-66.5008809 7.24425993 -63.43979537 6.9830659 -60.37890625 6.71875 C-59.31634361 6.6327655 -59.31634361 6.6327655 -58.23231506 6.54504395 C-54.49309103 6.25781818 -54.49309103 6.25781818 -51 5 C-43.69482225 3.95640318 -36.3646804 3.87179473 -29 4 C-29 3.34 -29 2.68 -29 2 C-25.1044547 1.66324289 -21.20852178 1.33119542 -17.3125 1 C-15.65831055 0.85691406 -15.65831055 0.85691406 -13.97070312 0.7109375 C-12.90400391 0.62070313 -11.83730469 0.53046875 -10.73828125 0.4375 C-9.26935425 0.31181641 -9.26935425 0.31181641 -7.77075195 0.18359375 C-5.17018114 0.01127643 -2.6052455 -0.0332673 0 0 Z " fill="#FFFFFF" transform="translate(244,117)"/>
<path d="M0 0 C0.80308594 -0.01160156 1.60617187 -0.02320312 2.43359375 -0.03515625 C8.26244829 -0.00681498 14.55200271 0.57881228 18.9934082 4.79150391 C20.22464395 6.26953372 21.36662607 7.82065861 22.5 9.375 C23.098125 9.9525 23.69625 10.53 24.3125 11.125 C25.5 12.375 25.5 12.375 25.5 14.375 C26.16 14.375 26.82 14.375 27.5 14.375 C29.2691279 19.70344473 29.8097038 24.34026879 29.75 29.9375 C29.76160156 31.03094727 29.76160156 31.03094727 29.7734375 32.14648438 C29.75739185 36.60316339 29.17116317 40.17719728 27.5 44.375 C26.84 44.375 26.18 44.375 25.5 44.375 C25.45875 45.096875 25.4175 45.81875 25.375 46.5625 C24.13006205 50.56408626 21.86839283 51.99731094 18.5 54.375 C16.125 55.1875 16.125 55.1875 14.5 55.375 C14.5 56.035 14.5 56.695 14.5 57.375 C9.54584618 59.3394433 5.3054775 59.7106785 0.0625 59.6875 C-1.02514648 59.71166992 -1.02514648 59.71166992 -2.13476562 59.73632812 C-9.12920888 59.74261244 -14.77272709 57.44437812 -20.5 53.375 C-22.41173211 51.46326789 -23.8916337 49.5807595 -25.5 47.375 C-25.5 46.385 -25.5 45.395 -25.5 44.375 C-26.16 44.375 -26.82 44.375 -27.5 44.375 C-29.47734422 39.40809964 -29.80574808 35.19175663 -29.75 29.9375 C-29.75773438 29.21240234 -29.76546875 28.48730469 -29.7734375 27.74023438 C-29.75613905 22.92693961 -29.01688315 18.94370759 -27.5 14.375 C-26.84 14.375 -26.18 14.375 -25.5 14.375 C-25.273125 13.6325 -25.04625 12.89 -24.8125 12.125 C-23.25071394 8.85268636 -21.37764944 7.51479061 -18.5 5.375 C-18.17 4.715 -17.84 4.055 -17.5 3.375 C-11.518508 0.61327509 -6.53813114 -0.09445133 0 0 Z " fill="#FFFFFF" transform="translate(272.5,115.625)"/>
<path d="M0 0 C8.91 0 17.82 0 27 0 C27 3.96 27 7.92 27 12 C25.35 12 23.7 12 22 12 C22 9.69 22 7.38 22 5 C18.37 5 14.74 5 11 5 C11 10.61 11 16.22 11 22 C13.64 22 16.28 22 19 22 C19.33 21.01 19.66 20.02 20 19 C21.98 19 23.96 19 26 19 C26 22.96 26 26.92 26 31 C24.02 31 22.04 31 20 31 C20 30.01 20 29.02 20 28 C17.03 28 14.06 28 11 28 C11 33.61 11 39.22 11 45 C11.66 45.33 12.32 45.66 13 46 C13 46.66 13 47.32 13 48 C14.65 48 16.3 48 18 48 C18 47.34 18 46.68 18 46 C18.61875 45.95875 19.2375 45.9175 19.875 45.875 C20.926875 45.441875 20.926875 45.441875 22 45 C23.3045656 42.00384054 23.3045656 42.00384054 24 39 C26.97 38.505 26.97 38.505 30 38 C30 40.64 30 43.28 30 46 C29.34 46 28.68 46 28 46 C28 47.98 28 49.96 28 52 C18.1 52 8.2 52 -2 52 C-2 50.68 -2 49.36 -2 48 C-1.34 48 -0.68 48 0 48 C0 47.34 0 46.68 0 46 C0.99 45.505 0.99 45.505 2 45 C2.0493521 39.48243524 2.08569662 33.96499829 2.10986328 28.44726562 C2.11993534 26.56931318 2.13359362 24.69137647 2.15087891 22.81347656 C2.17507453 20.1177991 2.18647083 17.42232854 2.1953125 14.7265625 C2.20563507 13.88380768 2.21595764 13.04105286 2.22659302 12.17276001 C2.22699144 10.11378753 2.12257588 8.05532065 2 6 C1.34 5.34 0.68 4.68 0 4 C0 2.68 0 1.36 0 0 Z " fill="#FFFFFF" transform="translate(330,225)"/>
<path d="M0 0 C0 0.66 0 1.32 0 2 C2.64 2 5.28 2 8 2 C8 4.64 8 7.28 8 10 C7.01 10.33 6.02 10.66 5 11 C5.020625 12.258125 5.04125 13.51625 5.0625 14.8125 C5.10886083 17.64051087 4.91692961 19.24921116 4 22 C3.34 22 2.68 22 2 22 C1.34 23.32 0.68 24.64 0 26 C-0.66 26 -1.32 26 -2 26 C-2 26.66 -2 27.32 -2 28 C-4 29.625 -4 29.625 -6 31 C-5.30132812 31.06058594 -4.60265625 31.12117188 -3.8828125 31.18359375 C-2.97273438 31.26738281 -2.06265625 31.35117187 -1.125 31.4375 C-0.22007812 31.51871094 0.68484375 31.59992188 1.6171875 31.68359375 C4 32 4 32 6 33 C6 33.99 6 34.98 6 36 C6.66 36 7.32 36 8 36 C8 38.64 8 41.28 8 44 C7.34 44 6.68 44 6 44 C5.9175 44.763125 5.835 45.52625 5.75 46.3125 C4.84730645 49.54715191 3.86406539 50.35099265 1 52 C0.34 52 -0.32 52 -1 52 C-1 52.66 -1 53.32 -1 54 C-5.05556072 54.34434006 -8.95417505 54.51110821 -13 54 C-16.36582406 50.86366394 -16.88256976 48.95621767 -17.4375 44.4375 C-17 41 -17 41 -15.5 38.5625 C-13.89357953 35.81819836 -13.84367701 34.88106358 -13.9375 31.8125 C-13.958125 30.554375 -13.97875 29.29625 -14 28 C-13.34 27.34 -12.68 26.68 -12 26 C-12.48855469 25.3090625 -12.97710937 24.618125 -13.48046875 23.90625 C-15.26332214 20.49637102 -15.3705815 18.32444314 -15.3125 14.5 C-15.30863281 13.3965625 -15.30476563 12.293125 -15.30078125 11.15625 C-14.92120082 7.17312033 -14.06372561 4.2339217 -11.4375 1.1875 C-7.71521629 -0.62592027 -4.06856367 -0.23472483 0 0 Z M-8 6 C-9.64965169 7.64965169 -9.24949498 9.5476355 -9.3125 11.8125 C-9.28667623 15.42266235 -9.27138573 16.62005998 -7.125 19.625 C-5.14198613 21.18108376 -5.14198613 21.18108376 -3 21 C-2.08542997 15.43842552 -1.67913603 11.324335 -4 6 C-5.32 6 -6.64 6 -8 6 Z M-9 40 C-9.76956136 42.34533951 -9.76956136 42.34533951 -10 45 C-9.06402685 47.01951062 -9.06402685 47.01951062 -7 48 C-3.85078091 47.76716851 -3.85078091 47.76716851 -1 47 C-1 46.34 -1 45.68 -1 45 C-0.34 45 0.32 45 1 45 C0.67 43.35 0.34 41.7 0 40 C-2.97 40 -5.94 40 -9 40 Z " fill="#FFFFFF" transform="translate(431,245)"/>
<path d="M0 0 C1.21816406 0.03480469 1.21816406 0.03480469 2.4609375 0.0703125 C3.68683594 0.09738281 3.68683594 0.09738281 4.9375 0.125 C5.87722656 0.15980469 5.87722656 0.15980469 6.8359375 0.1953125 C6.8359375 0.8553125 6.8359375 1.5153125 6.8359375 2.1953125 C9.4759375 2.1953125 12.1159375 2.1953125 14.8359375 2.1953125 C14.8359375 4.8353125 14.8359375 7.4753125 14.8359375 10.1953125 C13.8459375 10.5253125 12.8559375 10.8553125 11.8359375 11.1953125 C11.8565625 12.2678125 11.8771875 13.3403125 11.8984375 14.4453125 C11.8501391 17.34321674 11.70437865 19.48143391 10.8359375 22.1953125 C10.1759375 22.1953125 9.5159375 22.1953125 8.8359375 22.1953125 C8.1759375 23.5153125 7.5159375 24.8353125 6.8359375 26.1953125 C6.1759375 26.1953125 5.5159375 26.1953125 4.8359375 26.1953125 C4.8359375 26.8553125 4.8359375 27.5153125 4.8359375 28.1953125 C2.8359375 29.8203125 2.8359375 29.8203125 0.8359375 31.1953125 C1.53460938 31.25589844 2.23328125 31.31648438 2.953125 31.37890625 C3.86320312 31.46269531 4.77328125 31.54648437 5.7109375 31.6328125 C6.61585938 31.71402344 7.52078125 31.79523438 8.453125 31.87890625 C10.8359375 32.1953125 10.8359375 32.1953125 12.8359375 33.1953125 C12.8359375 34.1853125 12.8359375 35.1753125 12.8359375 36.1953125 C13.4959375 36.1953125 14.1559375 36.1953125 14.8359375 36.1953125 C15.35096853 42.06666624 14.82470431 45.09942167 11.3203125 49.84765625 C9.54994706 51.45496171 8.1673687 51.80175894 5.8359375 52.1953125 C5.8359375 52.8553125 5.8359375 53.5153125 5.8359375 54.1953125 C3.87827469 54.27613344 1.91967022 54.33442028 -0.0390625 54.3828125 C-1.67488281 54.43501953 -1.67488281 54.43501953 -3.34375 54.48828125 C-4.27445312 54.39160156 -5.20515625 54.29492188 -6.1640625 54.1953125 C-8.1640625 51.1953125 -8.1640625 51.1953125 -8.1640625 48.1953125 C-8.8240625 48.1953125 -9.4840625 48.1953125 -10.1640625 48.1953125 C-10.1640625 45.8853125 -10.1640625 43.5753125 -10.1640625 41.1953125 C-9.5040625 41.1953125 -8.8440625 41.1953125 -8.1640625 41.1953125 C-7.37863525 38.05360352 -7.15868664 35.28229958 -7.2890625 32.0703125 C-7.1640625 28.1953125 -7.1640625 28.1953125 -5.6640625 26.1953125 C-5.1690625 25.8653125 -4.6740625 25.5353125 -4.1640625 25.1953125 C-4.8240625 25.1953125 -5.4840625 25.1953125 -6.1640625 25.1953125 C-9.32589334 20.00990992 -8.7755005 14.05492665 -8.1640625 8.1953125 C-6.74283823 4.56850906 -4.07378982 0.36767056 0 0 Z M-1.1640625 6.1953125 C-2.72391459 7.75516459 -2.40858594 9.28437348 -2.4765625 11.4453125 C-2.44820648 15.00115783 -2.21904257 16.10551172 -0.2890625 19.2578125 C1.60297624 21.41989712 1.60297624 21.41989712 3.8359375 21.1953125 C5.61476039 15.85884384 5.28316913 11.24272774 2.8359375 6.1953125 C1.5159375 6.1953125 0.1959375 6.1953125 -1.1640625 6.1953125 Z M-3.1640625 41.1953125 C-2.8340625 43.1753125 -2.5040625 45.1553125 -2.1640625 47.1953125 C1.12289983 47.99484388 2.54616942 48.29190186 5.8359375 47.1953125 C5.8359375 46.5353125 5.8359375 45.8753125 5.8359375 45.1953125 C6.4959375 45.1953125 7.1559375 45.1953125 7.8359375 45.1953125 C7.5059375 43.5453125 7.1759375 41.8953125 6.8359375 40.1953125 C5.5571875 40.1746875 4.2784375 40.1540625 2.9609375 40.1328125 C2.24164063 40.12121094 1.52234375 40.10960937 0.78125 40.09765625 C-1.24591654 40.06882008 -1.24591654 40.06882008 -3.1640625 41.1953125 Z " fill="#FFFFFF" transform="translate(398.1640625,244.8046875)"/>
<path d="M0 0 C4.95 0 9.9 0 15 0 C15 1.32 15 2.64 15 4 C14.01 4.495 14.01 4.495 13 5 C13.33 6.051875 13.66 7.10375 14 8.1875 C14.83966782 11.38873357 15.19750904 13.7411008 15 17 C15.66 17 16.32 17 17 17 C17.19335938 17.90363281 17.38671875 18.80726563 17.5859375 19.73828125 C17.97652344 21.50751953 17.97652344 21.50751953 18.375 23.3125 C18.63023437 24.48425781 18.88546875 25.65601563 19.1484375 26.86328125 C19.85695531 30.12920445 19.85695531 30.12920445 22 33 C24.23940314 28.20127899 25.0560864 23.17144153 26 18 C26.66 18 27.32 18 28 18 C28.1971051 16.12598537 28.38223113 14.25070903 28.5625 12.375 C28.66691406 11.33085937 28.77132813 10.28671875 28.87890625 9.2109375 C29.12624763 5.51517655 29.12624763 5.51517655 28 0 C32.29 0 36.58 0 41 0 C40.67 1.98 40.34 3.96 40 6 C39.34 6.33 38.68 6.66 38 7 C37.06775973 9.21878993 36.22750319 11.4766774 35.4375 13.75 C35.00308594 14.98234375 34.56867188 16.2146875 34.12109375 17.484375 C33.21201816 20.33513467 32.4999845 23.05627102 32 26 C31.34 26 30.68 26 30 26 C29.34 29.96 28.68 33.92 28 38 C27.34 38 26.68 38 26 38 C25.67 41.63 25.34 45.26 25 49 C24.34 49 23.68 49 23 49 C23 50.32 23 51.64 23 53 C21.35 53 19.7 53 18 53 C17.67 50.36 17.34 47.72 17 45 C16.34 45 15.68 45 15 45 C14.66127487 43.58461283 14.32925376 42.16762037 14 40.75 C13.814375 39.96109375 13.62875 39.1721875 13.4375 38.359375 C13 36 13 36 13 32 C12.34 32 11.68 32 11 32 C10.70996094 30.67935547 10.70996094 30.67935547 10.4140625 29.33203125 C10.15367187 28.17058594 9.89328125 27.00914062 9.625 25.8125 C9.36976563 24.66394531 9.11453125 23.51539063 8.8515625 22.33203125 C8.09878579 19.06277236 8.09878579 19.06277236 6.8984375 16.32421875 C6 14 6 14 6 10 C5.34 10 4.68 10 4 10 C3.67 8.02 3.34 6.04 3 4 C2.01 4 1.02 4 0 4 C0 2.68 0 1.36 0 0 Z " fill="#FFFFFF" transform="translate(328,122)"/>
<path d="M0 0 C1.31484375 0.00386719 2.6296875 0.00773438 3.984375 0.01171875 C7.25 0.3125 7.25 0.3125 9.25 2.3125 C9.375 4.9375 9.375 4.9375 9.25 7.3125 C9.91 7.3125 10.57 7.3125 11.25 7.3125 C11.22679687 8.57707031 11.20359375 9.84164062 11.1796875 11.14453125 C11.16092874 12.8046816 11.14272865 14.46483833 11.125 16.125 C11.10824219 16.95837891 11.09148437 17.79175781 11.07421875 18.65039062 C11.06777344 19.45283203 11.06132812 20.25527344 11.0546875 21.08203125 C11.04421387 21.82042236 11.03374023 22.55881348 11.02294922 23.31958008 C11.13258521 25.63140676 11.13258521 25.63140676 13.25 28.3125 C13.25 29.6325 13.25 30.9525 13.25 32.3125 C4.34 32.3125 -4.57 32.3125 -13.75 32.3125 C-13.75 30.9925 -13.75 29.6725 -13.75 28.3125 C-13.09 28.3125 -12.43 28.3125 -11.75 28.3125 C-11.75 27.6525 -11.75 26.9925 -11.75 26.3125 C-11.09 26.3125 -10.43 26.3125 -9.75 26.3125 C-10.08 20.3725 -10.41 14.4325 -10.75 8.3125 C-11.74 7.9825 -12.73 7.6525 -13.75 7.3125 C-13.75 5.9925 -13.75 4.6725 -13.75 3.3125 C-8.99419307 0.51366331 -5.49227585 -0.07055295 0 0 Z M0.25 6.3125 C-0.74 6.9725 -1.73 7.6325 -2.75 8.3125 C-3.18038524 10.20904819 -3.18038524 10.20904819 -3.078125 12.375 C-3.07296875 13.17164063 -3.0678125 13.96828125 -3.0625 14.7890625 C-3.041875 15.62179687 -3.02125 16.45453125 -3 17.3125 C-2.99484375 18.14523437 -2.9896875 18.97796875 -2.984375 19.8359375 C-3.051371 24.22396923 -3.051371 24.22396923 -1.75 28.3125 C-0.76 28.3125 0.23 28.3125 1.25 28.3125 C1.25 27.6525 1.25 26.9925 1.25 26.3125 C1.91 25.9825 2.57 25.6525 3.25 25.3125 C3.229375 24.508125 3.20875 23.70375 3.1875 22.875 C3.25 20.3125 3.25 20.3125 4.25 19.3125 C4.32179964 17.79321962 4.33392007 16.27082518 4.3125 14.75 C4.30347656 13.92371094 4.29445313 13.09742188 4.28515625 12.24609375 C4.27355469 11.60800781 4.26195312 10.96992188 4.25 10.3125 C3.59 10.3125 2.93 10.3125 2.25 10.3125 C2.58 9.3225 2.91 8.3325 3.25 7.3125 C2.26 6.9825 1.27 6.6525 0.25 6.3125 Z " fill="#FFFFFF" transform="translate(374.75,244.6875)"/>
<path d="M0 0 C-0.01571045 0.96824707 -0.01571045 0.96824707 -0.03173828 1.95605469 C-0.07337272 4.88733002 -0.09934975 7.81854304 -0.125 10.75 C-0.14175781 11.76578125 -0.15851563 12.7815625 -0.17578125 13.828125 C-0.18544922 15.29765625 -0.18544922 15.29765625 -0.1953125 16.796875 C-0.20578613 17.69760742 -0.21625977 18.59833984 -0.22705078 19.52636719 C0.01278324 22.13926856 0.67687936 23.75664666 2 26 C3.32 25.34 4.64 24.68 6 24 C5.8863485 21.37405216 5.75960946 18.74988453 5.625 16.125 C5.5940625 15.37863281 5.563125 14.63226563 5.53125 13.86328125 C5.44356169 9.46526812 5.44356169 9.46526812 3 6 C2.875 3.375 2.875 3.375 3 1 C6.94020358 -0.26086514 9.47580299 0 14 0 C13.67 8.58 13.34 17.16 13 26 C13.99 26 14.98 26 16 26 C15.67 27.65 15.34 29.3 15 31 C13.56274129 31.16873478 12.12518162 31.33490737 10.6875 31.5 C9.88699219 31.5928125 9.08648437 31.685625 8.26171875 31.78125 C6 32 6 32 3 32 C2.360625 32.04640625 1.72125 32.0928125 1.0625 32.140625 C0.381875 32.17671875 -0.29875 32.2128125 -1 32.25 C-1.680625 32.29640625 -2.36125 32.3428125 -3.0625 32.390625 C-5 32 -5 32 -6.73828125 30.59375 C-8.69804433 26.56501104 -8.31458785 22.66222935 -8.1875 18.25 C-8.16719727 16.91775391 -8.16719727 16.91775391 -8.14648438 15.55859375 C-8.11121309 13.37177422 -8.06192752 11.18620034 -8 9 C-8.99 9 -9.98 9 -11 9 C-11 7.35 -11 5.7 -11 4 C-10.34 4 -9.68 4 -9 4 C-9 3.34 -9 2.68 -9 2 C-5.83390538 0.12379578 -3.64167599 -0.09662822 0 0 Z " fill="#FFFFFF" transform="translate(437,143)"/>
<path d="M0 0 C1.19109375 -0.00386719 1.19109375 -0.00386719 2.40625 -0.0078125 C4.5 0.125 4.5 0.125 6.5 1.125 C6.5 2.775 6.5 4.425 6.5 6.125 C5.84 6.125 5.18 6.125 4.5 6.125 C4.5 6.785 4.5 7.445 4.5 8.125 C2.85 8.125 1.2 8.125 -0.5 8.125 C-0.5 7.465 -0.5 6.805 -0.5 6.125 C-1.49 6.125 -2.48 6.125 -3.5 6.125 C-3.83 7.445 -4.16 8.765 -4.5 10.125 C-5.16 10.125 -5.82 10.125 -6.5 10.125 C-6.5 14.415 -6.5 18.705 -6.5 23.125 C-4.19 23.125 -1.88 23.125 0.5 23.125 C0.5 24.775 0.5 26.425 0.5 28.125 C-1.81 28.455 -4.12 28.785 -6.5 29.125 C-6.5 36.055 -6.5 42.985 -6.5 50.125 C-5.18 50.125 -3.86 50.125 -2.5 50.125 C-2.5 51.445 -2.5 52.765 -2.5 54.125 C-7.45 54.125 -12.4 54.125 -17.5 54.125 C-17.5 52.805 -17.5 51.485 -17.5 50.125 C-16.51 50.125 -15.52 50.125 -14.5 50.125 C-14.5 42.865 -14.5 35.605 -14.5 28.125 C-15.49 28.125 -16.48 28.125 -17.5 28.125 C-17.5 26.475 -17.5 24.825 -17.5 23.125 C-16.51 22.795 -15.52 22.465 -14.5 22.125 C-14.44392578 20.91263672 -14.44392578 20.91263672 -14.38671875 19.67578125 C-14.28810547 18.07283203 -14.28810547 18.07283203 -14.1875 16.4375 C-14.12949219 15.38175781 -14.07148438 14.32601563 -14.01171875 13.23828125 C-13.45743627 9.86604356 -12.54487745 7.84645419 -10.5 5.125 C-9.84 5.125 -9.18 5.125 -8.5 5.125 C-8.21125 4.485625 -7.9225 3.84625 -7.625 3.1875 C-5.74260773 -0.2635525 -3.64931203 -0.01184842 0 0 Z " fill="#FFFFFF" transform="translate(394.5,324.875)"/>
<path d="M0 0 C1.07894531 0.00773437 1.07894531 0.00773437 2.1796875 0.015625 C7.43882722 0.09441361 7.43882722 0.09441361 9.75 1.25 C11.00197318 6.44029942 11.0683707 11.8101851 11.3125 17.125 C11.35568359 18.00414062 11.39886719 18.88328125 11.44335938 19.7890625 C11.54869339 21.94255797 11.64977649 24.09626064 11.75 26.25 C12.41 26.58 13.07 26.91 13.75 27.25 C13.75 28.57 13.75 29.89 13.75 31.25 C9.46 31.25 5.17 31.25 0.75 31.25 C1.75 26.25 1.75 26.25 2.30078125 24.3515625 C2.92591374 21.42702964 2.92064067 18.61247369 2.9375 15.625 C2.95876953 13.90410156 2.95876953 13.90410156 2.98046875 12.1484375 C3.05529658 9.12274099 3.05529658 9.12274099 0.75 7.25 C-0.24 7.58 -1.23 7.91 -2.25 8.25 C-2.25 14.19 -2.25 20.13 -2.25 26.25 C-1.59 26.58 -0.93 26.91 -0.25 27.25 C-0.25 28.57 -0.25 29.89 -0.25 31.25 C-4.87 31.25 -9.49 31.25 -14.25 31.25 C-14.25 29.93 -14.25 28.61 -14.25 27.25 C-12.93 26.92 -11.61 26.59 -10.25 26.25 C-9.755 17.34 -9.755 17.34 -9.25 8.25 C-11.725 7.26 -11.725 7.26 -14.25 6.25 C-14.25 5.26 -14.25 4.27 -14.25 3.25 C-9.27504248 0.2775411 -5.61046678 -0.16440928 0 0 Z " fill="#FFFFFF" transform="translate(361.25,347.75)"/>
<path d="M0 0 C5.94 0 11.88 0 18 0 C18 1.32 18 2.64 18 4 C17.01 4 16.02 4 15 4 C15 18.19 15 32.38 15 47 C15.99 47.33 16.98 47.66 18 48 C18 49.32 18 50.64 18 52 C12.06 52 6.12 52 0 52 C0 50.68 0 49.36 0 48 C2.97 47.505 2.97 47.505 6 47 C6 33.47 6 19.94 6 6 C5.34 6 4.68 6 4 6 C4 5.34 4 4.68 4 4 C2.68 4 1.36 4 0 4 C0 2.68 0 1.36 0 0 Z " fill="#FFFFFF" transform="translate(328,327)"/>
<path d="M0 0 C2.03667615 1.54506466 2.86073078 2.72146156 4 5 C4.08400529 6.59447464 4.10727467 8.19240545 4.09765625 9.7890625 C4.09443359 10.73007812 4.09121094 11.67109375 4.08789062 12.640625 C4.07951172 13.62546875 4.07113281 14.6103125 4.0625 15.625 C4.05798828 16.61757813 4.05347656 17.61015625 4.04882812 18.6328125 C4.03702145 21.0886016 4.020554 23.54427104 4 26 C5.32 26 6.64 26 8 26 C7.67 27.65 7.34 29.3 7 31 C6.01 31 5.02 31 4 31 C4 31.66 4 32.32 4 33 C2.35 33 0.7 33 -1 33 C-1 32.34 -1 31.68 -1 31 C-1.99 31 -2.98 31 -4 31 C-4 31.66 -4 32.32 -4 33 C-6.64 33 -9.28 33 -12 33 C-13.44509246 28.66472261 -13.52819164 24.53054517 -13 20 C-10.47980364 16.12277483 -7.368381 15.19137664 -3 14 C-3.33 12.35 -3.66 10.7 -4 9 C-4.33 9.66 -4.66 10.32 -5 11 C-7.32156597 11.40729228 -9.6568787 11.74438677 -12 12 C-12.36681223 4.54148472 -12.36681223 4.54148472 -10.6875 2.0625 C-7.18484538 -0.14287513 -4.0398307 -0.33665256 0 0 Z M-4 20 C-4 20.66 -4 21.32 -4 22 C-4.99 22.33 -5.98 22.66 -7 23 C-7 23.99 -7 24.98 -7 26 C-6.01 26 -5.02 26 -4 26 C-3.34 24.02 -2.68 22.04 -2 20 C-2.66 20 -3.32 20 -4 20 Z " fill="#FFFFFF" transform="translate(429,348)"/>
<path d="M0 0 C3.26739717 1.63369858 3.71704704 4.70894675 5 8 C5.37308631 9.32276056 5.73046415 10.65232077 6 12 C4.02 12.33 2.04 12.66 0 13 C0 13.66 0 14.32 0 15 C-1.98 15.66 -3.96 16.32 -6 17 C-5.71848913 18.31471568 -5.42446661 19.62675767 -5.125 20.9375 C-4.96257812 21.66839844 -4.80015625 22.39929688 -4.6328125 23.15234375 C-4.17038477 25.20700294 -4.17038477 25.20700294 -2 26 C-1.01 25.34 -0.02 24.68 1 24 C2.32 24 3.64 24 5 24 C5.3125 26.3125 5.3125 26.3125 5 29 C2.06569707 31.74499307 -0.6730093 32.24495096 -4.5625 32.4375 C-7.77720297 32.32517261 -8.78999541 32.14700321 -11.5 30.25 C-15.54287018 24.18569473 -14.42613119 15.99752268 -14 9 C-12.09397082 0.69234179 -7.73024637 -0.36810697 0 0 Z M-6 6 C-5.67 7.32 -5.34 8.64 -5 10 C-4.34 9.34 -3.68 8.68 -3 8 C-3.33 7.34 -3.66 6.68 -4 6 C-4.66 6 -5.32 6 -6 6 Z " fill="#FFFFFF" transform="translate(400,143)"/>
<path d="M0 0 C4.0154778 2.6769852 4.60203473 5.20915627 5.625 9.8125 C5.74875 10.534375 5.8725 11.25625 6 12 C4.02 12.33 2.04 12.66 0 13 C0 13.66 0 14.32 0 15 C-2.31 15.33 -4.62 15.66 -7 16 C-6.52219697 17.29217171 -6.04270894 18.58372046 -5.5625 19.875 C-5.29566406 20.59429687 -5.02882813 21.31359375 -4.75390625 22.0546875 C-4.02083146 24.03648845 -4.02083146 24.03648845 -3 26 C-1.68 26 -0.36 26 1 26 C1 25.34 1 24.68 1 24 C2.32 24 3.64 24 5 24 C5.3125 26.3125 5.3125 26.3125 5 29 C1.91733671 31.88378178 -0.75222613 32.17469157 -4.8125 32.1875 C-6.20891272 32.13966204 -7.60517921 32.08204828 -9 32 C-9.66 30.68 -10.32 29.36 -11 28 C-11.66 28 -12.32 28 -13 28 C-15.00485445 21.49243965 -15.41348523 12.68139065 -12.953125 6.2734375 C-9.35671471 0.45571498 -6.94865293 -0.36571858 0 0 Z M-6 6 C-5.67 7.32 -5.34 8.64 -5 10 C-4.01 9.34 -3.02 8.68 -2 8 C-3.32 7.34 -4.64 6.68 -6 6 Z " fill="#FFFFFF" transform="translate(378,143)"/>
<path d="M0 0 C1 1 1 1 1.125 4.5 C1 8 1 8 0 9 C-1.98 9 -3.96 9 -6 9 C-6.33 14.61 -6.66 20.22 -7 26 C-5.35 26.33 -3.7 26.66 -2 27 C-2 28.32 -2 29.64 -2 31 C-6.95 31 -11.9 31 -17 31 C-16 26 -16 26 -15 24 C-14.77049681 21.795636 -14.58924067 19.58607827 -14.4375 17.375 C-14.31181641 15.59222656 -14.31181641 15.59222656 -14.18359375 13.7734375 C-14.12300781 12.85820312 -14.06242187 11.94296875 -14 11 C-14.99 11 -15.98 11 -17 11 C-17.375 8.3125 -17.375 8.3125 -17 5 C-12.28794846 -0.85822624 -7.20566814 -0.85927899 0 0 Z " fill="#FFFFFF" transform="translate(412,348)"/>
<path d="M0 0 C1.0828125 0.37125 1.0828125 0.37125 2.1875 0.75 C2.5175 0.42 2.8475 0.09 3.1875 -0.25 C5.6875 -0.375 5.6875 -0.375 8.1875 -0.25 C9.1875 0.75 9.1875 0.75 9.3125 4.25 C9.1875 7.75 9.1875 7.75 8.1875 8.75 C6.2075 8.75 4.2275 8.75 2.1875 8.75 C1.8575 14.69 1.5275 20.63 1.1875 26.75 C2.8375 26.75 4.4875 26.75 6.1875 26.75 C6.1875 28.07 6.1875 29.39 6.1875 30.75 C1.2375 30.75 -3.7125 30.75 -8.8125 30.75 C-8.8125 29.43 -8.8125 28.11 -8.8125 26.75 C-8.1525 26.75 -7.4925 26.75 -6.8125 26.75 C-6.4825 21.47 -6.1525 16.19 -5.8125 10.75 C-6.8025 10.75 -7.7925 10.75 -8.8125 10.75 C-9.1875 8.0625 -9.1875 8.0625 -8.8125 4.75 C-4.13082094 -0.36718408 -4.13082094 -0.36718408 0 0 Z " fill="#FFFFFF" transform="translate(415.8125,143.25)"/>
<path d="M0 0 C0.78375 0.04125 1.5675 0.0825 2.375 0.125 C2.705 1.445 3.035 2.765 3.375 4.125 C4.035 4.125 4.695 4.125 5.375 4.125 C5.375 5.445 5.375 6.765 5.375 8.125 C4.385 8.62 4.385 8.62 3.375 9.125 C3.045 10.115 2.715 11.105 2.375 12.125 C0.0625 12.375 0.0625 12.375 -2.625 12.125 C-4.5 10.5 -4.5 10.5 -5.625 8.125 C-5.35758301 3.66805024 -5.0942925 0.24258536 0 0 Z " fill="#FFFFFF" transform="translate(444.625,265.875)"/>
</svg>
